<?xml version="1.0" standalone="no"?>
<!DOCTYPE svg PUBLIC "-//W3C//DTD SVG 20010904//EN"
 "http://www.w3.org/TR/2001/REC-SVG-20010904/DTD/svg10.dtd">
<svg version="1.0" xmlns="http://www.w3.org/2000/svg"
 width="512.000000pt" height="512.000000pt" viewBox="0 0 512.000000 512.000000"
 preserveAspectRatio="xMidYMid meet">
<metadata>
Created by potrace 1.11, written by Peter Selinger 2001-2013
</metadata>
<g transform="translate(0.000000,512.000000) scale(0.100000,-0.100000)"
fill="#000000" stroke="none">
<path d="M1076 5104 c-97 -30 -168 -93 -213 -189 l-28 -60 -3 -669 -3 -669
-38 -81 c-79 -164 -137 -368 -156 -544 -6 -52 -10 -62 -24 -58 -111 31 -426
98 -458 98 -81 -1 -152 -73 -153 -156 0 -39 34 -106 65 -129 23 -17 131 -45
437 -117 l137 -32 6 -37 c17 -99 61 -257 101 -355 24 -61 42 -111 41 -113 -2
-1 -93 -21 -203 -43 -109 -23 -212 -49 -229 -59 -129 -75 -71 -291 79 -291 22
0 153 23 290 51 l250 51 44 -53 c25 -30 83 -91 129 -136 l84 -82 -54 -90 c-63
-104 -118 -230 -153 -351 -49 -170 -56 -228 -61 -560 l-5 -315 24 -34 c12 -19
36 -44 51 -55 l28 -21 1499 0 1499 0 28 21 c15 11 39 36 51 55 l24 34 -5 320
c-4 269 -8 335 -25 416 -38 181 -102 345 -193 496 l-50 84 84 82 c46 45 104
106 129 136 l44 53 250 -51 c137 -28 267 -51 288 -51 82 0 156 75 156 156 0
49 -36 112 -75 135 -17 10 -120 36 -229 59 -110 22 -201 42 -203 43 -1 2 17
52 41 113 40 98 84 257 100 355 l6 36 138 33 c383 90 415 100 445 128 57 53
70 117 38 188 -23 52 -76 86 -134 86 -23 0 -138 -22 -256 -51 -117 -28 -215
-51 -216 -51 -2 0 -6 28 -10 63 -19 175 -77 379 -156 543 l-38 81 -3 669 -3
669 -28 60 c-82 176 -280 252 -449 172 -29 -14 -231 -161 -448 -326 l-395
-302 -60 6 c-33 3 -98 10 -145 15 -127 14 -295 12 -455 -6 l-144 -16 -163 123
c-90 68 -260 197 -378 287 -118 90 -235 177 -260 193 -87 57 -187 72 -284 43z
m291 -446 c342 -258 398 -303 399 -313 0 -5 -31 -24 -70 -41 -142 -63 -291
-156 -414 -258 -41 -34 -87 -72 -103 -85 l-29 -24 0 416 c0 228 3 422 6 431 3
9 10 16 15 16 5 0 93 -64 196 -142z m2598 129 c3 -6 4 -200 3 -430 l-3 -418
-90 77 c-117 101 -260 194 -412 269 l-122 60 297 227 c163 124 303 226 310
227 7 1 15 -5 17 -12z m-1058 -651 c359 -75 639 -228 880 -479 196 -206 321
-450 367 -716 17 -100 21 -191 9 -191 -5 0 -120 -27 -257 -59 -151 -36 -260
-67 -275 -79 -91 -67 -96 -184 -11 -255 52 -44 81 -44 299 8 110 26 205 45
210 43 14 -4 -48 -187 -94 -277 -19 -39 -37 -71 -38 -71 -2 0 -82 16 -177 35
-95 19 -191 35 -212 35 -72 0 -128 -46 -148 -121 -15 -56 2 -109 48 -151 34
-31 52 -37 157 -58 l118 -23 -74 -71 c-100 -96 -219 -178 -364 -251 -379 -192
-813 -235 -1244 -125 -246 63 -509 205 -683 369 l-80 75 28 7 c16 4 69 15 119
25 74 15 96 24 127 52 106 96 41 272 -100 272 -21 0 -117 -16 -212 -35 -95
-19 -175 -35 -177 -35 -1 0 -19 32 -38 71 -46 90 -108 273 -94 277 5 2 100
-17 210 -43 218 -52 247 -52 299 -8 85 71 80 188 -11 255 -15 12 -124 43 -275
79 -137 32 -252 59 -256 59 -13 0 -9 100 8 195 87 506 488 948 1025 1131 209
71 369 94 614 89 143 -3 205 -9 302 -29z m-1006 -3080 c529 -174 1106 -132
1595 114 l135 68 26 -41 c45 -71 111 -218 133 -297 34 -123 50 -255 50 -422
l0 -158 -1281 0 -1281 0 5 208 c6 216 15 278 62 418 26 77 79 189 121 255 l24
38 137 -69 c76 -38 199 -90 274 -114z"/>
<path d="M1829 3106 c-87 -31 -139 -101 -139 -187 1 -176 206 -262 333 -141
54 51 71 110 55 186 -14 65 -75 128 -140 144 -57 15 -64 14 -109 -2z"/>
<path d="M3176 3108 c-59 -16 -121 -83 -134 -144 -16 -76 1 -135 55 -186 135
-129 349 -24 331 163 -12 118 -134 200 -252 167z"/>
<path d="M2354 2461 c-47 -28 -64 -59 -64 -113 0 -40 8 -58 55 -129 57 -85 62
-102 44 -142 -19 -41 -47 -51 -174 -56 -103 -5 -124 -9 -151 -28 -87 -62 -84
-200 5 -259 88 -58 360 -36 464 38 27 19 27 19 55 0 47 -34 101 -52 196 -63
121 -15 220 -6 267 25 66 44 87 131 50 205 -33 64 -60 75 -196 82 -127 5 -155
15 -174 56 -18 40 -13 57 44 142 48 71 55 89 55 130 0 34 -6 56 -21 75 -40 51
-64 56 -251 56 -153 0 -177 -2 -204 -19z"/>
</g>
</svg>
